<svg width="800" height="600" xmlns="http://www.w3.org/2000/svg">
 <!-- Created with Method Draw - http://github.com/duopixel/Method-Draw/ -->
 <g>
  <title>background</title>
  <rect fill="#fff" id="canvas_background" height="602" width="802" y="-1" x="-1"/>
  <g display="none" overflow="visible" y="0" x="0" height="100%" width="100%" id="canvasGrid">
   <rect fill="url(#gridpattern)" stroke-width="0" y="0" x="0" height="100%" width="100%"/>
  </g>
 </g>
 <g>
  <title>Layer 1</title>
  <path id="svg_5" d="m465.5,258.5" opacity="0.5" stroke-opacity="null" stroke-width="1.5" stroke="#000" fill="#6D97AB"/>
  <path transform="rotate(90 56.324081420898416,180.11872863769534) " id="svg_11" d="m1.62175,161.27451l109.40467,0l0,0c14.33232,0 25.95093,8.43684 25.95093,18.84422c0,10.40737 -11.61862,18.84422 -25.95093,18.84422l-109.40467,0l0,0c-14.33231,0 -25.95094,-8.43685 -25.95094,-18.84422c0,-10.40738 11.61863,-18.84422 25.95094,-18.84422z" stroke-width="1.5" fill="#7c5df7"/>
  <path stroke="null" transform="rotate(90 154.28314208984375,180.11872863769534) " id="svg_13" d="m99.58082,161.27451l109.40467,0l0,0c14.33232,0 25.95093,8.43684 25.95093,18.84422c0,10.40737 -11.61862,18.84422 -25.95093,18.84422l-109.40467,0l0,0c-14.33231,0 -25.95094,-8.43685 -25.95094,-18.84422c0,-10.40738 11.61863,-18.84422 25.95094,-18.84422z" stroke-opacity="null" stroke-width="1.5" fill="#7c5df7"/>
  <path stroke="null" transform="rotate(90 353.2872924804688,171.94114685058597) " id="svg_14" d="m305.716,155.66702l95.14258,0l0,0c12.46395,0 22.56794,7.28617 22.56794,16.27412c0,8.98794 -10.10401,16.27412 -22.56794,16.27412l-95.14258,0l0,0c-12.46394,0 -22.56795,-7.28618 -22.56795,-16.27412c0,-8.98795 10.10401,-16.27412 22.56795,-16.27412z" stroke-opacity="null" stroke-width="1.5" fill="#7c5df7"/>
  <path transform="rotate(90 497.11993408203125,201.46496582031256) " id="svg_15" d="m456.56501,185.28741l81.10981,0l0,0c10.62561,0 19.23935,7.24293 19.23935,16.17754c0,8.93461 -8.61375,16.17755 -19.23935,16.17755l-81.10981,0l0,0c-10.62561,0 -19.23936,-7.24294 -19.23936,-16.17755c0,-8.93461 8.61375,-16.17754 19.23936,-16.17754z" stroke-width="1.5" fill="#7c5df7"/>
  <path id="svg_17" d="m369.25926,221.11111" opacity="0.5" stroke-width="1.5" fill="#7c5df7"/>
  <path id="svg_18" d="m346.29213,253.03371" opacity="0.5" fill-opacity="null" stroke-opacity="null" stroke-width="1.5" stroke="null" fill="#7c5df7"/>
  <path id="svg_20" d="m450.90909,218.18182" opacity="0.5" fill-opacity="null" stroke-opacity="null" stroke-width="1.5" stroke="null" fill="#7c5df7"/>
  <path transform="rotate(90 497.11993408203125,201.46496582031256) " id="svg_21" d="m456.56501,185.28741l81.10981,0l0,0c10.62561,0 19.23935,7.24293 19.23935,16.17754c0,8.93461 -8.61375,16.17755 -19.23935,16.17755l-81.10981,0l0,0c-10.62561,0 -19.23936,-7.24294 -19.23936,-16.17755c0,-8.93461 8.61375,-16.17754 19.23936,-16.17754z" stroke-width="1.5" fill="#7c5df7"/>
  <path transform="rotate(90 497.11993408203125,201.46496582031256) " id="svg_24" d="m456.56501,185.28741l81.10981,0l0,0c10.62561,0 19.23935,7.24293 19.23935,16.17754c0,8.93461 -8.61375,16.17755 -19.23935,16.17755l-81.10981,0l0,0c-10.62561,0 -19.23936,-7.24294 -19.23936,-16.17755c0,-8.93461 8.61375,-16.17754 19.23936,-16.17754z" stroke-width="1.5" fill="#7c5df7"/>
  <path id="svg_26" d="m496.53782,194.61514" opacity="0.5" stroke-width="1.5" fill="#7c5df7"/>
  <path transform="rotate(90 555.1967773437501,201.46496582031256) " id="svg_27" d="m514.64186,185.28741l81.10981,0l0,0c10.62561,0 19.23935,7.24293 19.23935,16.17754c0,8.93461 -8.61375,16.17755 -19.23935,16.17755l-81.10981,0l0,0c-10.62561,0 -19.23936,-7.24294 -19.23936,-16.17755c0,-8.93461 8.61375,-16.17754 19.23936,-16.17754z" stroke-width="1.5" fill="#7c5df7"/>
  <path transform="rotate(90 650.7780151367189,182.86744689941412) " id="svg_32" d="m621.18246,166.68988l59.19112,0l0,0c7.7542,0 14.04021,7.24293 14.04021,16.17754c0,8.93461 -6.28602,16.17755 -14.04021,16.17755l-59.19112,0l0,0c-7.7542,0 -14.04022,-7.24294 -14.04022,-16.17755c0,-8.93461 6.28602,-16.17754 14.04022,-16.17754z" stroke-width="1.5" fill="#7c5df7"/>
  <path transform="rotate(90 721.67724609375,182.86744689941415) " id="svg_33" d="m692.08171,166.68988l59.19113,0l0,0c7.7542,0 14.04021,7.24293 14.04021,16.17754c0,8.93461 -6.28602,16.17755 -14.04021,16.17755l-59.19113,0l0,0c-7.7542,0 -14.04021,-7.24294 -14.04021,-16.17755c0,-8.93461 6.28601,-16.17754 14.04021,-16.17754z" stroke-width="1.5" fill="#7c5df7"/>
  <path id="svg_36" d="m370.73088,230.3518" opacity="0.5" fill-opacity="null" stroke-opacity="null" stroke-width="1.5" stroke="null" fill="#7c5df7"/>
  <path id="svg_44" d="m337.015,219.45237c-0.14408,22.33429 1.66614,25.50423 4.25688,30.42718c2.59074,4.92294 5.46494,8.10243 16.02798,11.53768c10.56304,3.43525 24.62679,1.942 29.07343,-0.22774c4.44664,-2.16974 11.49824,-5.71408 13.37143,-10.90139c1.8732,-5.18732 1.72911,-8.50144 0.86456,-11.0951c-0.86456,-2.59366 -3.02594,-4.61095 -6.48415,-5.76369c-3.45821,-1.15274 -6.48415,-1.7291 -11.0951,0.28819c-4.61095,2.01729 -6.50246,2.11421 -8.91799,1.65049c-2.41553,-0.46372 -3.42278,-3.08003 -3.93776,-4.90838c-0.51499,-1.82835 -0.833,-12.44816 -0.833,-12.44816c0,0 -32.1822,-20.89337 -32.32628,1.44092z" fill-opacity="null" stroke-opacity="null" stroke-width="1.5" stroke="null" fill="#7c5df7"/>
  <path id="svg_46" d="m634.87328,213.1226c0.01432,2.16162 -1.78869,21.92917 5.63836,32.64767c7.42705,10.7185 14.76898,12.05458 22.08761,13.64609c7.31863,1.59151 14.54736,2.09313 25.95319,2.09313c11.40584,0 20.34515,-1.09893 23.81865,-2.50818c3.4735,-1.40926 4.87897,-0.02332 14.68267,-7.69594c9.8037,-7.67262 9.36491,-22.48328 10.09026,-26.20576c0.72534,-3.72249 1.27218,-15.11203 -0.14971,-10.70568c-1.4219,4.40634 -31.39667,-1.87165 -31.40377,-0.86614c-0.0071,1.00551 -0.55413,10.60128 -0.58556,12.33813c-0.03143,1.73685 -1.18604,5.75404 -4.27974,8.51036c-3.0937,2.75632 -10.19392,3.61343 -13.2961,3.79686c-3.10218,0.18343 -11.5167,-0.35642 -15.36971,-3.83363c-3.853,-3.47722 -3.61155,-6.08034 -4.27676,-10.32437c-0.66521,-4.24403 -0.6458,-13.29719 -0.73548,-14.32328c-0.08968,-1.02609 -32.18823,1.26912 -32.17391,3.43074z" fill-opacity="null" stroke-opacity="null" stroke-width="1.5" stroke="null" fill="#7c5df7"/>
  <path id="svg_47" d="m71.28751,142.09414c0.56449,-0.48508 -10.00217,17.15968 -10.22099,20.44196c-0.21881,3.28228 -2.38222,15.71321 4.8001,16.54194c7.18231,0.82872 9.17344,1.97722 17.46073,-1.06145c8.28728,-3.03868 18.10628,-12.63887 29.70848,-14.29633c11.6022,-1.65745 23.02125,-1.53958 29.61541,-0.0683c6.59416,1.47128 17.25278,8.77449 21.73009,13.86956c4.47731,5.09507 8.44565,15.03499 7.69914,22.02024c-0.74652,6.98525 -2.79507,17.75872 -6.93872,21.44297c-4.14365,3.68424 -6.7477,6.58328 -14.52602,11.64874c-7.77831,5.06545 -16.47362,5.65059 -24.35591,3.93571c-7.88229,-1.71488 -12.28041,-2.70501 -15.31908,-7.67738c-3.03867,-4.97237 -6.78034,-9.44968 -6.78034,-9.44969c0,0.00001 7.05659,8.01408 13.27054,8.58833c6.21395,0.57424 10.64775,3.13175 17.9449,-0.1614c7.29715,-3.29315 15.39041,-6.36749 16.49538,-13.82605c1.10497,-7.45855 1.04452,-11.1319 0.67821,-14.20322c-0.36631,-3.07132 -7.0457,-12.3735 -11.92498,-14.85969c-4.87928,-2.48619 -12.43093,-3.93571 -19.337,-2.83073c-6.90607,1.10497 -11.3634,5.67235 -18.76577,8.60098c-7.40237,2.92864 -11.87541,3.27746 -20.71518,5.46564c-8.83977,2.18819 -22.12119,0.298 -27.09356,-3.84564c-4.97237,-4.14364 -8.09257,-18.9866 -7.81632,-25.34018c0.27624,-6.35359 10.48618,-16.15016 12.73992,-18.16538c2.25375,-2.01522 11.08648,-6.28555 11.65097,-6.77063z" stroke-opacity="null" stroke-width="1.5" stroke="null" fill="#5de2ce"/>
  <path id="svg_48" d="m222.02693,180.01297c-2.00445,10.69042 -3.0662,10.71241 -2.6726,19.59911c0.3936,8.8867 2.6726,20.71269 4.23162,23.3853c1.55902,2.6726 9.35412,10.24499 11.80401,11.35857c2.44989,1.11359 7.57239,5.34521 10.91314,6.68152c3.34076,1.3363 8.77519,4.12764 12.02673,2.89532c3.25154,-1.23232 12.17499,-4.69183 13.74155,-6.31776c1.56656,-1.62592 11.302,-6.1792 14.64276,-10.63355c3.34076,-4.45434 10.92542,-11.91302 13.04108,-15.11996c2.11566,-3.20694 3.6153,-6.68842 4.93684,-12.23468c1.32154,-5.54626 2.24226,-10.45985 1.74467,-16.0504c-0.49759,-5.59055 -0.62354,-11.7817 -3.8308,-15.36748c-3.20725,-3.58578 -6.19147,-5.34521 -11.7594,-6.90423c-5.56793,-1.55902 -10.4677,-2.00446 -16.9265,-0.22272c-6.4588,1.78174 -8.43373,3.3706 -10.46771,5.56793c-2.03398,2.19733 -3.34075,10.69042 -3.56347,10.4677c0.22272,0.22272 0.89087,10.46771 2.89532,14.03118c2.00446,3.56348 5.47149,6.23609 6.80779,6.90424c1.3363,0.66815 5.88709,2.44989 5.66437,2.22717c0.22272,0.22272 -3.68221,1.65546 -7.69866,3.29615c-4.01645,1.6407 -11.90045,1.15819 -15.68664,-0.40083c-3.78619,-1.55902 -7.03805,-5.62008 -9.35412,-7.7951c-2.31607,-2.17502 -5.90938,-11.22508 -5.90938,-12.73949c0,-1.51441 -1.21757,-9.08679 0.56417,-14.65472c1.78174,-5.56793 6.70383,-11.64067 9.15371,-14.98142c2.44988,-3.34075 4.65476,-5.28584 13.78616,-7.29029c9.1314,-2.00445 18.93095,-2.00446 27.39421,0.22271c8.46325,2.22718 18.04008,7.57239 21.38084,11.35858c3.34076,3.78619 10.91346,11.50778 13.3112,20.04486c2.39774,8.53708 3.6153,18.26249 1.61085,26.72574c-2.00445,8.46325 -6.03598,20.78714 -9.64375,25.38221c-3.60777,4.59508 -10.23745,10.17085 -12.79131,11.76694c-2.55387,1.59609 -8.26284,4.95915 -13.16261,6.74089c-4.89978,1.78174 -10.66812,4.95915 -14.89975,6.07274c-4.23163,1.11358 -14.41002,2.92517 -18.99033,3.26662c-4.58031,0.34145 -6.59984,1.38813 -15.5902,0.22272c-8.99036,-1.16541 -13.58575,-2.67261 -20.04454,-6.90424c-6.4588,-4.23162 -14.47662,-12.47216 -14.69934,-12.69487c0.22272,0.22271 -8.01781,-7.12695 -8.90868,-15.36749c-0.89087,-8.24053 -2.50783,-14.18897 -2.22717,-17.81737c0.28066,-3.6284 1.11358,-13.14031 2.44989,-16.03563c1.3363,-2.89533 8.01781,-16.03564 7.7951,-16.25836c0.22271,0.22272 8.90868,-13.58574 11.58129,-14.69933c2.6726,-1.11358 11.13585,-7.34966 10.91314,-7.57238c0.22271,0.22272 9.79955,-5.79065 9.57684,-6.01336c0.22271,0.22271 6.90423,-3.11804 6.68151,-3.34076l-19.82183,39.19822z" stroke-opacity="null" stroke-width="1.5" stroke="null" fill="#5de2ce"/>
  <path id="svg_52" d="m317.66445,147.79294c0.13723,-0.07502 1.63205,5.71191 4.45318,8.30325c2.82113,2.59134 11.74302,7.00758 15.71897,6.9508c3.97594,-0.05678 12.52665,-1.79006 16.03767,-3.51102c3.51101,-1.72095 15.77091,-12.01994 19.30925,-13.60003c3.53834,-1.58009 5.41302,-1.98289 10.99851,-2.08197c5.58549,-0.0991 10.15758,3.98558 12.08636,5.76599c1.92877,1.7804 5.15057,9.36432 4.60906,16.58454c-0.54152,7.22021 -2.88809,9.20577 -2.8881,9.20576c0.00001,0.00001 -0.1805,-5.77616 -0.18051,-5.77617c0.00001,0.00001 -0.77879,-1.77291 -1.93841,-5.13824c-1.15963,-3.36532 -4.08254,-4.3198 -5.68244,-5.53889c-1.59991,-1.21908 -5.28661,-0.32137 -10.88228,1.84469c-5.59567,2.16607 -6.27055,3.41729 -9.83621,6.84689c-3.56566,3.4296 -8.13292,6.97544 -14.42329,7.33645c-6.29037,0.36101 -11.38898,0.06427 -11.38899,0.06426c0.00001,0.00001 -8.30324,-0.72201 -12.81587,-2.88808c-4.51264,-2.16606 -7.09649,-4.79437 -9.05741,-6.57479c-1.96093,-1.78041 -2.8115,-6.22127 -3.71403,-8.38734c-0.90252,-2.16606 -0.54269,-9.33108 -0.40546,-9.4061z" fill-opacity="null" stroke-opacity="null" stroke-width="1.5" stroke="null" fill="#5de2ce"/>
  <path id="svg_53" d="m427.81233,165.15757c0,0 -6.59898,13.70557 -8.62943,21.82741c-2.03046,8.12184 -4.31473,17.51269 -3.55331,24.8731c0.76142,7.36041 4.06092,18.27411 7.1066,22.33502c3.04569,4.06091 6.59899,6.59898 11.16751,9.39086c4.56853,2.79188 11.42132,4.56853 11.42132,4.56853c0,0 6.34518,3.04568 12.94416,-0.76142c6.59899,-3.80711 12.18276,-7.3604 15.22843,-11.16751c3.04568,-3.80711 4.31472,-7.61422 4.56853,-11.42132c0.25381,-3.8071 -4.06091,-13.70559 -4.06091,-13.70559c0,0 -3.2995,-5.83756 -1.52285,-15.73604c1.77665,-9.89848 7.1066,-20.30456 9.39087,-22.08121c2.28426,-1.77665 12.43654,-7.61422 12.18274,-7.61422c0.2538,0 7.86802,-2.79188 14.97462,-2.79188c7.1066,0 13.45177,2.53807 13.45177,2.53807c0,0 -4.82233,0.50762 -4.82233,0.50762c0,0 -4.06092,1.52284 -8.62944,4.06091c-4.56853,2.53807 -8.88325,7.61421 -9.13706,7.61421c0.25381,0 -2.28426,1.26904 -4.06091,8.12183c-1.77665,6.85279 -2.53807,11.42132 -2.53807,15.48224c-0.00001,4.06092 2.79187,9.39086 3.8071,13.19796c1.01524,3.80711 3.2995,5.58376 2.53807,11.42132c-0.76143,5.83756 -1.77664,9.13706 -4.06091,13.19797c-2.28427,4.06091 -6.09137,8.12183 -9.39086,10.4061c-3.29949,2.28427 -9.39086,6.59898 -14.97462,9.39086c-5.58376,2.79188 -9.89848,3.04568 -14.97462,4.82233c-5.07614,1.77665 -16.24365,1.52285 -20.81218,0.25381c-4.56853,-1.26904 -12.94417,-6.09137 -15.48224,-6.85279c-2.53807,-0.76142 -6.09137,-3.2995 -12.18274,-7.36041c-3.04569,-4.06092 -2.53806,-4.31472 -5.83756,-10.40609c-3.2995,-6.09137 -2.79189,-15.73605 -2.28427,-21.3198c0.50762,-5.58375 2.79188,-17.76649 5.58376,-24.11167c2.79188,-6.09137 8.37562,-13.19798 10.40609,-15.73605c2.03046,-2.53806 7.86802,-8.37563 7.86802,-8.37563c0,0 4.31472,-4.56852 4.31472,-4.56852z" fill-opacity="null" stroke-opacity="null" stroke-width="1.5" stroke="null" fill="#5de2ce"/>
  <path id="svg_55" d="m548.51758,150.66151c-0.13303,-0.10397 2.88361,12.21179 4.40644,14.74987c1.52284,2.53807 10.68896,10.36022 15.25749,9.345c4.56853,-1.01523 7.5393,-1.90514 8.85419,-8.07597c1.31489,-6.17083 3.1206,-17.03869 4.56853,-19.79696c1.44793,-2.75827 5.86207,-10.481 8.37564,-12.18274c2.51357,-1.70174 6.34517,-6.34517 14.467,-6.34517c8.12183,0 13.70558,1.01522 18.27411,6.59898c4.56853,5.58376 6.31612,13.27289 5.58376,18.52792c-0.73236,5.25503 -3.02888,12.85699 -7.1066,15.98985c-4.07772,3.13286 -11.67513,6.09137 -11.67513,6.09137c0,0 5.83757,-8.12183 5.83757,-8.12183c0,0 2.03044,-6.76106 1.73078,-9.04533c-0.29966,-2.28427 -1.55189,-5.69229 -3.62821,-8.46736c-2.07632,-2.77507 -3.66952,-3.42482 -6.98582,-2.53807c-3.3163,0.88675 -6.13723,4.89725 -6.09137,13.95939c0.04586,9.06214 -0.25381,9.13706 -1.52285,14.46701c-1.26903,5.32994 -5.74584,15.12444 -8.75022,18.00349c-3.00437,2.87906 -6.4782,5.09295 -13.33099,5.60057c-6.8528,0.50761 -10.91371,1.94329 -15.48224,0c-4.56853,-1.94329 -6.34518,-4.82234 -10.40609,-7.61422c-4.06091,-2.79188 -7.3436,-5.94153 -8.10502,-10.25625c-0.76142,-4.31473 -1.0443,-7.91389 -1.0443,-11.9748c0,-4.06091 1.62683,-8.22581 3.05795,-11.27149c1.43112,-3.04568 3.84842,-7.53929 3.71538,-7.64326z" fill-opacity="null" stroke-opacity="null" stroke-width="1.5" stroke="null" fill="#5de2ce"/>
  <path id="svg_59" d="m734.39641,381.09343" fill-opacity="null" stroke-opacity="null" stroke-width="1.5" stroke="null" fill="#5de2ce"/>
  <path id="svg_60" d="m734.16862,380.63785" fill-opacity="null" stroke-opacity="null" stroke-width="1.5" stroke="null" fill="#5de2ce"/>
  <path id="svg_61" d="m719.13445,366.97042" fill-opacity="null" stroke-opacity="null" stroke-width="1.5" stroke="null" fill="#5de2ce"/>
  <path id="svg_63" d="m730.10991,144.47456c0.14551,-0.28275 10.78099,1.5913 14.42564,8.42501c3.64465,6.83371 7.74893,25.06505 7.21607,31.89067c-0.53286,6.82562 -5.33548,17.41646 -9.26618,21.86788c-3.9307,4.45142 -4.06907,18.54449 -4.7836,20.72893c-0.71453,2.18444 1.53344,15.8721 3.41686,18.22324c1.88342,2.35114 11.80708,8.63297 17.79072,8.25467c5.98364,-0.3783 12.76436,-0.74163 14.73719,-3.47107c1.97283,-2.72944 4.82972,-10.47836 4.60194,-10.47836c0.22778,0 1.33963,7.74487 1.13895,8.88382c-0.20068,1.13895 -1.67128,7.94476 -3.50803,10.47837c-1.83675,2.53361 -3.49926,5.47506 -14.4332,6.38622c-10.93394,0.91116 -15.22393,2.19254 -22.32751,-0.13149c-7.10358,-2.32403 -8.70621,-3.06567 -13.03423,-6.48253c-4.32802,-3.41685 -6.17339,-3.54834 -8.35501,-8.04589c-2.18162,-4.49755 -2.2589,-3.66488 -2.81077,-11.23901c-0.55187,-7.57413 -0.90307,-10.61391 0.91521,-18.7561c1.81828,-8.14219 1.27045,-8.10821 4.55581,-15.48975c3.28536,-7.38154 7.74892,-12.30473 11.52102,-17.41242l4.95798,-11.97255c0.43036,-6.15412 0.5771,-9.4674 0.58033,-11.8451c0.00323,-2.3777 -0.20284,-6.60593 -0.30264,-7.51709c-0.0998,-0.91116 -1.95355,-5.03958 -2.85824,-7.41405c-0.90469,-2.37447 -4.32382,-4.60065 -4.17831,-4.8834z" fill-opacity="null" stroke-opacity="null" stroke-width="1.5" stroke="null" fill="#5de2ce"/>
 </g>
</svg>